<?xml version="1.0" encoding="UTF-8" standalone="no"?>
<!-- Created with Inkscape (http://www.inkscape.org/) -->

<svg
   xmlns:dc="http://purl.org/dc/elements/1.1/"
   xmlns:cc="http://creativecommons.org/ns#"
   xmlns:rdf="http://www.w3.org/1999/02/22-rdf-syntax-ns#"
   xmlns:svg="http://www.w3.org/2000/svg"
   xmlns="http://www.w3.org/2000/svg"
   xmlns:sodipodi="http://sodipodi.sourceforge.net/DTD/sodipodi-0.dtd"
   xmlns:inkscape="http://www.inkscape.org/namespaces/inkscape"
   version="1.1"
   id="svg2"
   width="372.7749"
   height="59.436527"
   viewBox="0 0 372.7749 59.436527"
   sodipodi:docname="srednie.svg"
   inkscape:version="0.92.4 (5da689c313, 2019-01-14)">
  <metadata
     id="metadata8">
    <rdf:RDF>
      <cc:Work
         rdf:about="">
        <dc:format>image/svg+xml</dc:format>
        <dc:type
           rdf:resource="http://purl.org/dc/dcmitype/StillImage" />
        <dc:title></dc:title>
      </cc:Work>
    </rdf:RDF>
  </metadata>
  <defs
     id="defs6" />
  <sodipodi:namedview
     pagecolor="#ffffff"
     bordercolor="#666666"
     borderopacity="1"
     objecttolerance="10"
     gridtolerance="10"
     guidetolerance="10"
     inkscape:pageopacity="0"
     inkscape:pageshadow="2"
     inkscape:window-width="1920"
     inkscape:window-height="1001"
     id="namedview4"
     showgrid="false"
     inkscape:zoom="1.864486"
     inkscape:cx="87.457438"
     inkscape:cy="-9.5227821"
     inkscape:window-x="-9"
     inkscape:window-y="-9"
     inkscape:window-maximized="1"
     inkscape:current-layer="svg2" />
  <path
     style="fill:#000000;stroke-width:1.33333337"
     d="m 6.5088207,133.81359 c -14.13933,-6.6384 -12.97599,-18.74088 3.24504,-33.75869 C 24.114751,86.759246 44.413961,77.763746 61.998821,76.902806 c 9.35686,-0.45811 9.5219,-0.421 2.56612,0.57695 -21.39118,3.06904 -41.64684,12.49196 -54.7602703,25.474464 -13.46738,13.33292 -14.72906,22.75406 -3.80432,28.40734 3.68172,1.90519 6.9136803,2.30568 15.3318003,1.89984 13.00967,-0.62721 23.43171,-5.22945 31.38731,-13.86025 5.86818,-6.36623 6.63969,-9.38842 2.55988,-10.02761 -1.49572,-0.23434 -2.54572,-1.02607 -2.33334,-1.75941 0.21238,-0.73333 1.58615,-1.13674 3.05282,-0.89648 9.89672,1.62128 23.58691,-3.81787 31.07479,-12.346094 4.67835,-5.32835 6.16187,-5.98714 4.96082,-2.20297 -2.31112,7.28171 8.928189,2.93635 18.694039,-7.22753 3.872,-4.02981 7.71295,-7.32693 8.53543,-7.32693 2.34572,0 -0.58628,4.56621 -5.71187,8.8955 -5.31324,4.48779 -13.662649,16.651514 -21.683679,31.589624 -3.20374,5.96652 -5.835,10.08111 -5.84725,9.14353 -0.0294,-2.24689 7.18045,-16.48202 12.82469,-25.3212 2.467499,-3.864244 4.486359,-7.268264 4.486359,-7.564484 0,-0.29622 -1.83768,0.37818 -4.083729,1.49866 -2.24606,1.12048 -5.66529,1.7349 -7.5983,1.36538 -2.39391,-0.45762 -4.81489,0.31995 -7.59261,2.43863 -4.92843,3.759094 -17.88569,9.923284 -20.89693,9.941344 -1.19437,0.007 -2.91448,1.80655 -3.82247,3.99863 -2.37733,5.7394 -11.01948,13.0262 -20.97352,17.68426 -11.29301,5.28464 -23.86189,6.2827 -31.8557703,2.52959 z m 245.4899993,-12.087 c 1.46667,-0.6921 4.00452,-1.30053 5.63968,-1.35208 5.72732,-0.18053 13.14997,-4.14666 15.63563,-8.35454 2.40729,-4.07521 2.40706,-4.15841 -0.008,-3.23144 -4.69803,1.8028 -13.57295,2.48752 -14.42262,1.11273 -0.55721,-0.9016 -2.93658,-0.72974 -7.05437,0.50953 -3.41804,1.02851 -7.91877,1.87001 -10.00223,1.87001 -3.13125,0 -3.78809,-0.56649 -3.78809,-3.26708 0,-1.79689 1.05,-3.85654 2.33333,-4.577 2.64214,-1.48328 1.70314,-2.01176 -5.89978,-3.3205 -3.70332,-0.63747 -4.55058,-0.19063 -6.76956,3.57026 -2.14956,3.64324 -3.75316,4.55023 -10.5138,5.94662 -9.82576,2.02948 -14.18135,2.08321 -16.06636,0.19819 -1.0438,-1.04379 -1.70027,-1.04379 -2.34536,0 -0.49272,0.79723 -1.47427,1.44951 -2.18123,1.44951 -0.70696,0 -0.30057,-1.503 0.90308,-3.34001 1.77976,-2.71627 1.87485,-3.71788 0.50916,-5.36343 -2.19361,-2.64314 -5.28509,-1.6526 -15.67588,5.0227 -4.60517,2.95849 -8.73995,5.01218 -9.18836,4.56376 -0.44841,-0.44841 1.51947,-3.58942 4.37307,-6.98001 2.8536,-3.3906 6.08132,-7.455834 7.17272,-9.033864 1.80029,-2.60303 1.78597,-2.71319 -0.15446,-1.18769 -1.17633,0.9248 -6.56929,2.79789 -11.98434,4.162414 -9.72476,2.45051 -9.89523,2.56893 -13.89356,9.65188 -2.2264,3.944 -4.6264,7.17092 -5.33334,7.17092 -0.70693,0 -1.81182,-3.10257 -2.4553,-6.89459 -1.0028,-5.90945 -0.74458,-7.77334 1.8072,-13.044604 3.80022,-7.85022 10.25272,-11.39415 20.74556,-11.39415 6.47198,0 8.00988,0.52088 11.32456,3.83555 3.48781,3.48782 4.08292,3.66228 6.56409,1.9244 4.36776,-3.0593 3.20429,-1.14269 -3.92713,6.46924 -3.66063,3.907284 -6.66063,7.579444 -6.66667,8.160354 -0.007,0.58092 2.66388,-0.51136 5.93316,-2.42729 7.30593,-4.281564 13.18192,-4.091184 13.82533,0.44793 0.23988,1.69226 0.83988,2.86624 1.33334,2.60883 3.9688,-2.0703 14.00121,-6.35234 14.88292,-6.35234 0.60388,0 0.78416,-1.200004 0.40061,-2.666674 -0.80257,-3.06904 -0.2486,-3.16888 6.77004,-1.22004 5.01877,1.39353 5.29587,1.28659 10.38284,-4.00744 2.87455,-2.99155 5.83307,-5.43918 6.57447,-5.43918 0.74141,0 -0.78087,2.19204 -3.38283,4.8712 -2.60197,2.67916 -4.73085,5.31757 -4.73085,5.86313 0,1.31724 15.29426,3.932334 22.9981,3.932334 3.36215,0 6.313,0.55575 6.55746,1.23498 0.25789,0.71664 3.29409,0.49139 7.23388,-0.53667 7.98018,-2.08237 32.7932,-1.12431 45.87722,1.77139 5.56444,1.23149 6.26944,1.07202 9.71171,-2.19684 3.2034,-3.042034 4.07661,-3.296834 6.37639,-1.86061 2.34933,1.46719 3.54842,0.94423 10.13229,-4.418954 4.10719,-3.34569 7.71721,-5.83347 8.02228,-5.52841 0.30507,0.30507 -2.62473,3.69164 -6.51067,7.52571 -6.49716,6.410464 -6.6774,6.744744 -2.24129,4.156894 6.01947,-3.511514 7.84263,-3.545794 7.84263,-0.14749 0,3.20758 1.227,3.30399 7.68865,0.60414 3.18483,-1.33071 5.1012,-1.56789 5.40101,-0.66847 0.28938,0.86813 1.54098,0.64021 3.31752,-0.60413 4.94091,-3.460754 5.03218,-2.215734 0.37167,5.06981 -2.48675,3.88741 -5.54627,9.43741 -6.79893,12.33334 -1.25267,2.89592 -2.54478,4.5628 -2.87135,3.70417 -0.32657,-0.85862 1.08696,-4.75862 3.14119,-8.66666 2.05422,-3.90804 3.91808,-7.49459 4.1419,-7.97011 0.508,-1.07929 -8.47009,-0.53229 -13.39166,0.81591 -3.15822,0.86514 -3.66667,0.6146 -3.66667,-1.80679 0,-3.61206 -0.97705,-3.53869 -6.95308,0.52213 -3.18885,2.16688 -6.75088,3.33333 -10.17908,3.33333 -4.66084,0 -5.43567,0.4648 -6.66805,4 -1.8796,5.39184 -3.36579,5.07973 -2.32138,-0.48751 0.83226,-4.43627 0.77784,-4.4961 -4.76566,-5.23964 -3.60827,-0.48397 -6.92186,-0.0725 -9.29394,1.15418 -7.59072,3.92531 -16.54441,0.79122 -9.48548,-3.32023 1.80436,-1.05095 0.7668,-1.36823 -4.57681,-1.39959 -5.80587,-0.0341 -7.04824,0.39451 -7.7742,2.68184 -0.54813,1.72699 -1.67789,2.49435 -3.08985,2.09872 -1.47962,-0.41459 -3.58436,1.24296 -6.27823,4.94428 -4.85999,6.67751 -8.25645,8.47494 -17.94757,9.49797 -5.09074,0.53739 -6.51784,0.38931 -4.66667,-0.48423 z m -94.60269,-13.5695 c 1.12474,-2.17503 1.70786,-4.50011 1.2958,-5.16683 -0.41206,-0.66673 0.0305,-1.69911 0.98368,-2.29418 0.95309,-0.59507 2.47817,-2.581954 3.38909,-4.415284 l 1.65621,-3.33333 -0.72829,3.70058 c -0.68361,3.473574 -0.50129,3.646874 2.97228,2.82501 17.06537,-4.03773 21.94084,-8.25271 12.97035,-11.21324 -5.12362,-1.69094 -12.83658,-1.03048 -18.59247,1.59208 -5.29667,2.41332 -8.67729,9.03576 -8.67729,16.998304 0,7.51065 1.33222,7.87869 4.73064,1.30689 z m 61.74761,-0.0801 c 2.59595,-0.96882 2.85839,-1.51896 1.50341,-3.1516 -2.34792,-2.82907 -6.64945,-2.44169 -10.22906,0.92118 -1.92656,1.80991 -3.08594,2.2495 -3.08594,1.17008 0,-1.38573 -0.39709,-1.39946 -2,-0.0692 -3.68232,3.05606 -2.16565,4.18772 4.33334,3.2333 3.48333,-0.51155 7.74854,-1.45826 9.47825,-2.1038 z m 35.85508,-0.56378 c 6.89909,-2.80685 5.51852,-5.06649 -2.44967,-4.00947 -7.47464,0.99154 -11.88366,3.15267 -11.88366,5.82489 0,2.01004 7.1594,1.10326 14.33333,-1.81542 z m 9.66667,-0.0623 c 0,-1.77172 -0.36199,-1.86283 -2,-0.5034 -1.1,0.91292 -2,1.88638 -2,2.16326 0,0.27687 0.9,0.5034 2,0.5034 1.1,0 2,-0.97346 2,-2.16326 z m 10.24754,-1.18757 c 5.78887,-2.41874 5.01247,-3.97406 -1.38473,-2.77393 -5.06709,0.95059 -9.59609,4.79143 -5.64992,4.79143 1.21335,0 4.37895,-0.90787 7.03465,-2.0175 z m 31.08579,-1.47134 c 0,-0.28114 -1.2,-0.51116 -2.66667,-0.51116 -1.46666,0 -2.66666,0.54383 -2.66666,1.20851 0,0.66468 1.2,0.8947 2.66666,0.51116 1.46667,-0.38355 2.66667,-0.92737 2.66667,-1.20851 z m 25.17083,0.95083 c 2.13372,-1.35148 0.87633,-4.12866 -1.86927,-4.12866 -1.03092,0 -2.51663,1.2 -3.30156,2.66667 -1.18019,2.20521 -1.01525,2.66313 0.95309,2.64625 1.30914,-0.0112 3.20711,-0.54415 4.21774,-1.18426 z m -106.50416,-1.46199 c 0,-0.73333 -0.63542,-1.33333 -1.41203,-1.33333 -0.77661,0 -1.0412,0.6 -0.58797,1.33333 0.45322,0.73333 1.08864,1.33333 1.41202,1.33333 0.32339,0 0.58798,-0.6 0.58798,-1.33333 z m 2.66666,-4 c 0,-0.733334 -0.85093,-1.333334 -1.89094,-1.333334 -1.04003,0 -2.84003,-0.3642 -4,-0.80932 -1.15999,-0.44513 -2.10906,-0.18686 -2.10906,0.57393 0,1.19058 1.25016,1.676454 7,2.720484 0.55,0.0999 1,-0.41843 1,-1.15176 z"
     id="path4833"
     inkscape:connector-curvature="0"
     inkscape:export-filename="C:\Users\Joanna\Desktop\gm\logo chude.png"
     inkscape:export-xdpi="96"
     inkscape:export-ydpi="96" />
  <path
     style="fill:#000000;stroke-width:1.33333337"
     d="m 10.725651,58.403344 c -20.88057,-8.80663 -10.07113028,-32.665728 22,-48.5594279 14.23107,-7.05258 25.17318,-10.10044002 35.28013,-9.82709002 4.2112,0.1139 5.66701,0.43315 3.38653,0.74266 C 43.649751,4.5247261 16.583331,18.487836 6.6425707,34.162796 c -6.59413998,10.397878 -5.03625,17.321148 4.7375703,21.053798 13.19214,5.03813 34.62062,-1.03728 45.28226,-12.83844 5.26863,-5.83174 5.53346,-8.314038 0.95882,-8.987168 -1.59256,-0.23434 -2.89557,-1.35429 -2.89557,-2.48877 0,-1.58816 0.84356,-1.84745 3.66667,-1.12707 2.01667,0.51461 5.45733,0.89767 7.64592,0.85126 5.93071,-0.12578 20.20714,-7.68325 24.37025,-12.90083 4.03555,-5.05771 6.26867,-5.95672 5.01943,-2.02073 -0.44591,1.40495 -0.27065,2.88825 0.38947,3.29623 2.359,1.45794 14.372029,-5.88475 19.328209,-11.8139499 2.77536,-3.32021 5.91624,-6.03674 6.97974,-6.03674 3.18032,0 2.25469,1.79764 -4.14799,8.05572 -7.29099,7.1263199 -16.01511,20.0537399 -22.835769,33.8380379 -2.75038,5.55843 -5.44251,10.10624 -5.9825,10.10624 -1.82235,0 2.79467,-10.75132 9.53493,-22.203298 3.684059,-6.25939 6.698299,-11.64541 6.698299,-11.96895 0,-0.32353 -1.28229,0.098 -2.84954,0.93678 -1.56724,0.83877 -4.830079,1.20363 -7.250759,0.81081 -2.86705,-0.46526 -4.93422,-0.072 -5.93027,1.12816 -2.57015,3.09684 -12.63714,8.46204 -19.1424,10.20193 -3.42707,0.9166 -6.16035,2.437668 -6.16035,3.428228 0,3.52737 -12.12297,14.66312 -20.70552,19.01939 -7.19027,3.64959 -10.52706,4.50385 -19.00788,4.86624 -5.65763,0.24175 -11.7866,-0.1931 -13.61994,-0.96633 z M 255.39231,45.346674 c 1.46667,-0.65742 5.64319,-1.90207 9.28116,-2.76588 7.06597,-1.67778 9.43109,-3.11188 11.4964,-6.97096 1.20957,-2.260108 0.74737,-2.368908 -6.73945,-1.586378 -5.14524,0.537778 -8.03811,0.34847 -8.03811,-0.52601 0,-0.85831 -1.85868,-0.70285 -5,0.4182 -2.75,0.981398 -7.25,1.810688 -10,1.842878 -4.47639,0.0524 -5,-0.29493 -5,-3.316648 0,-1.92841 0.9584,-3.74296 2.23585,-4.23316 2.00059,-0.7677 1.96551,-0.96387 -0.33333,-1.86444 -5.58139,-2.18648 -9.68572,-1.30568 -11.97508,2.5699 -1.77167,2.99919 -3.76701,4.08263 -9.82231,5.33333 -9.40649,1.942878 -15.67749,2.006838 -16.81181,0.171468 -0.58895,-0.952928 -1.47332,-0.892438 -2.77757,0.19 -2.7772,2.30486 -3.99007,0.31049 -1.49072,-2.451248 1.53021,-1.69086 1.75797,-2.98888 0.8189,-4.66691 -1.18136,-2.11098 -1.72264,-2.14835 -5.89101,-0.40669 -2.52456,1.05483 -7.25485,3.75126 -10.51175,5.99207 -9.6356,6.629458 -11.52449,5.196828 -4.42016,-3.35248 8.41571,-10.12742 8.41943,-9.68269 -0.0592,-7.07601 -4.1957,1.28995 -9.13649,2.65653 -10.97953,3.03685 -2.38048,0.49123 -4.50432,2.82958 -7.33333,8.074 -2.1903,4.060378 -4.69559,7.384598 -5.56732,7.387168 -0.87174,0.002 -1.98926,-2.69134 -2.48339,-5.98644 -2.46423,-16.433078 5.88552,-26.2755679 22.2906,-26.2755679 8.42876,0 14.44449,2.7087599 14.44449,6.5040599 0,1.93098 0.3011,1.90342 2.67484,-0.24479 1.47116,-1.33138 3.08499,-2.01055 3.58628,-1.50926 0.5013,0.50129 -1.90238,3.76822 -5.3415,7.25985 -7.23127,7.34166 -7.89299,9.17338 -2.262,6.26149 9.1955,-4.75518 10.59841,-4.89215 13.87665,-1.35487 l 3.06156,3.30347 5.47101,-2.64331 c 3.00906,-1.45382 6.16998,-2.64331 7.02427,-2.64331 0.8968,0 1.25853,-1.12699 0.85589,-2.66666 -0.7835,-2.99612 0.044,-3.14624 7.63687,-1.38544 5.10245,1.18328 5.40968,1.04671 10.89408,-4.84262 3.10396,-3.33313 6.26897,-5.6737099 7.03337,-5.2012899 0.79972,0.4942599 -0.85361,2.8857399 -3.89409,5.6326299 -2.90615,2.62553 -5.28389,5.23484 -5.28389,5.79848 0,1.30299 20.26494,4.315 22.78338,3.38633 1.0358,-0.38195 3.38328,0.0824 5.21662,1.03181 2.73546,1.41664 4.40569,1.40881 9.31213,-0.0436 4.0446,-1.19733 9.65212,-1.51598 17.33333,-0.98496 6.245,0.43172 13.85627,0.7245 16.91395,0.65062 3.05768,-0.0739 5.94309,0.48646 6.41203,1.24521 1.60592,2.59844 11.63717,1.58577 14.92944,-1.50716 2.58009,-2.42387 3.59305,-2.64962 6.31801,-1.40805 2.61669,1.19225 3.58771,1.06268 5.01319,-0.66893 2.50254,-3.03997 11.88364,-9.70584 13.63464,-9.68828 0.80664,0.008 -1.83339,3.03233 -5.86672,6.72054 -6.06558,5.54655 -6.59564,6.35076 -3.06622,4.65196 5.67211,-2.73013 7.06622,-2.59151 7.06622,0.70264 0,2.99697 2.31906,2.77733 9.56216,-0.90563 2.5247,-1.28376 3.7073,-1.37582 4.06054,-0.3161 0.35104,1.05312 1.34954,0.96364 3.37722,-0.30266 4.37009,-2.72917 4.99857,-0.60125 1.28388,4.34697 -1.82538,2.43149 -4.97944,7.720898 -7.00907,11.754238 -2.02963,4.03333 -3.92689,6.64288 -4.21615,5.799 -0.28925,-0.84388 1.00024,-4.69788 2.86554,-8.56444 1.86528,-3.866568 3.13438,-7.287168 2.82021,-7.601338 -0.91376,-0.91377 -6.38849,-0.75005 -10.96601,0.32793 -3.67374,0.86514 -4.27944,0.62176 -4.66667,-1.87513 -0.4372,-2.81908 -0.55324,-2.80043 -6.63,1.06557 -3.40176,2.16419 -7.00176,3.89591 -8,3.84827 -5.33867,-0.25479 -7.53001,0.64747 -8.90572,3.666798 -1.92049,4.21505 -4.78425,4.48913 -3.48281,0.33334 0.51672,-1.65 1.22134,-3.749998 1.56584,-4.666668 0.90488,-2.40785 -8.91172,-2.15219 -17.92039,0.4667 -8.62648,2.507778 -11.85369,1.08046 -7.76708,-3.4352 2.41377,-2.66719 2.37873,-2.69817 -3.05127,-2.69817 -4.15716,0 -5.84568,0.65886 -6.94294,2.70913 -0.79744,1.49002 -2.4223,2.54002 -3.6108,2.33333 -1.26867,-0.22063 -3.63122,1.76584 -5.72184,4.811018 -4.50463,6.56141 -8.95067,8.88063 -18.43907,9.61851 -5.12009,0.39817 -6.68332,0.20277 -4.87224,-0.60903 z M 160.4344,31.601126 c 1.123,-2.31876 1.73376,-5.01876 1.35722,-6 -0.37654,-0.98124 -0.0396,-1.78408 0.74878,-1.78408 0.78838,0 2.32855,-1.65 3.42262,-3.66666 1.95116,-3.59656 1.99021,-3.60647 2.04257,-0.51828 0.0491,2.89335 0.44647,3.07465 4.90576,2.23808 14.67393,-2.75285 18.53343,-6.71387 9.44344,-9.69186 -7.11587,-2.3312499 -16.77307,-0.0966 -21.6696,5.01428 -2.91756,3.04528 -3.86892,5.51059 -4.34584,11.26161 -0.69121,8.335048 0.96569,9.608328 4.09505,3.14691 z m 59.52114,0.70328 c 2.92886,-0.58577 4.10373,-1.50852 3.81972,-3 -0.61183,-3.2129 -5.83512,-3.36851 -8.93739,-0.26625 -1.49512,1.49512 -3.57133,2.39112 -4.61379,1.99109 -1.04245,-0.40003 -2.29146,-0.0864 -2.7756,0.69691 -0.99776,1.61442 5.76327,1.92701 12.50706,0.57825 z m 37.49685,-1.33363 c 3.09529,-1.23849 4.94575,-2.68124 4.2856,-3.34138 -1.67076,-1.67075 -13.54771,0.81826 -16.1044,3.37494 -1.97251,1.97251 -1.80167,2.14605 2.11269,2.14605 2.3423,0 6.71006,-0.98082 9.70611,-2.17961 z m 9.93992,0.84628 c 0.45323,-0.73334 0.18864,-1.33334 -0.58797,-1.33334 -0.77662,0 -1.41203,0.6 -1.41203,1.33334 0,0.73333 0.26459,1.33333 0.58797,1.33333 0.32339,0 0.9588,-0.6 1.41203,-1.33333 z m 10.66667,-2.59371 c 3.07986,-1.45741 4.32934,-2.56937 2.95717,-2.6317 -2.65261,-0.12049 -11.62384,3.34542 -11.62384,4.4907 0,1.38062 3.33008,0.66631 8.66667,-1.859 z m 55.45833,-0.13986 c 1.439,-0.77013 2.26415,-1.97013 1.83365,-2.66667 -1.32405,-2.14236 -4.45668,-1.40622 -5.95865,1.40023 -1.64073,3.06574 -0.1132,3.53469 4.125,1.26644 z m -105.45833,-1.26644 c 0,-0.73333 -0.63542,-1.33333 -1.41203,-1.33333 -0.77661,0 -1.0412,0.6 -0.58797,1.33333 0.45322,0.73334 1.08864,1.33334 1.41202,1.33334 0.32339,0 0.58798,-0.6 0.58798,-1.33334 z m 2.09838,-3.84079 c -0.3991,-0.64577 -2.28,-1.47127 -4.17977,-1.83443 -3.92393,-0.75011 -2.66879,1.07559 1.41472,2.0578 1.46667,0.35278 2.85208,0.71102 3.07869,0.79609 0.22662,0.0851 0.0855,-0.37369 -0.31364,-1.01946 z"
     id="path4753"
     inkscape:connector-curvature="0"
     inkscape:export-filename="C:\Users\Joanna\Desktop\gm\logo srednie.png"
     inkscape:export-xdpi="96"
     inkscape:export-ydpi="96" />
  <path
     style="fill:#000000;stroke-width:1.33333337"
     d="m 9.8666307,-15.219854 c -7.80784,-2.09544 -14.05982,-8.2203 -14.01556,-13.73058 0.15725,-19.57696 37.1266903,-44.95675 67.0090803,-46.00222 11.22989,-0.39289 11.91283,2.02867 0.92621,3.28413 -32.62858,3.72852 -68.6597703,29.88291 -62.7135503,45.52263 2.98946,7.86288 20.6253903,10.3024 35.1614603,4.86375 11.31252,-4.23255 26.06492,-18.64725 19.08411,-18.64725 -1.01021,0 -2.51761,-0.82039 -3.34977,-1.82309 -2.56362,-3.08897 1.24874,-5.14796 6.28263,-3.39314 3.0692,1.06993 5.47686,1.02987 9.19738,-0.15303 7.02099,-2.23225 17.15532,-8.84009 20.90387,-13.62984 3.34264,-4.27111 6.83958,-3.98495 5.43368,0.44465 -1.91834,6.04414 8.854529,0.34048 18.116159,-9.59154 3.34431,-3.58637 6.79431,-6.52067 7.66667,-6.52067 3.48181,0 1.25516,5.20971 -4.55364,10.65416 -6.9212,6.48706 -15.655989,19.51366 -22.896749,34.14698 -4.91135,9.92566 -6.96349,12.06831 -6.96349,7.2706 0,-2.50208 6.87455,-16.54015 13.34126,-27.24332 l 3.124599,-5.17157 -3.049009,1.63178 c -1.67696,0.89748 -4.5391,1.34693 -6.36033,0.99878 -2.27725,-0.43532 -5.45749,0.78748 -10.18392,3.91572 -3.77993,2.50179 -10.0226,5.47212 -13.8726,6.60073 -4.28657,1.25659 -7,2.80217 -7,3.98721 0,3.40532 -10.41102,13.36928 -18.33054,17.54339 -7.14306,3.76487 -18.82122,7.1171 -24.06842,6.90887 -1.24724,-0.0495 -5.24753,-0.8897 -8.8895303,-1.86713 z M 251.13494,-27.936474 c -3.27078,-1.14733 -1.53088,-2.04466 7.60583,-3.92256 7.09224,-1.4577 14.41435,-5.53437 14.41435,-8.02536 0,-0.60213 -2.48123,-0.46498 -5.51384,0.30478 -3.90807,0.99197 -6.18762,0.97878 -7.8274,-0.0453 -1.7122,-1.06929 -3.8012,-0.93232 -8.03672,0.52694 -8.23883,2.8385 -13.83418,2.02724 -14.41534,-2.09006 -0.26765,-1.8962 0.43475,-3.91286 1.67998,-4.82339 1.81118,-1.32437 1.36977,-1.69016 -2.87338,-2.38107 -2.81229,-0.45792 -5.20582,-0.25061 -5.4518,0.47221 -0.85488,2.51207 -5.17741,7.1128 -7.02262,7.47462 -1.02972,0.20191 -5.66963,1.11538 -10.31091,2.02995 -6.27275,1.23604 -9.05217,1.27971 -10.82889,0.17013 -1.76616,-1.10299 -2.78299,-1.09992 -3.89464,0.0117 -1.04374,1.04374 -1.93006,1.07883 -2.89428,0.1146 -0.96424,-0.96423 -0.76008,-1.91249 0.66666,-3.09659 2.75375,-2.28541 2.64843,-6.71357 -0.15968,-6.71357 -2.31878,0 -12.18001,5.33931 -17.63029,9.54582 -7.18088,5.5422 -7.50655,0.52693 -0.51947,-7.99988 2.73206,-3.33412 4.08206,-5.72241 3,-5.30732 -1.08206,0.41509 -5.45145,1.53432 -9.70976,2.48716 -5.33237,1.19318 -8.19926,2.59496 -9.21016,4.50334 -0.80728,1.52398 -2.90858,5.06499 -4.66957,7.8689 -2.62139,4.1739 -3.55007,4.80896 -5.12316,3.50341 -2.98643,-2.47851 -2.57059,-18.18713 0.61996,-23.41942 3.17631,-5.20893 12.56184,-9.84868 19.92243,-9.84868 6.32942,0 14.86954,3.0849 14.86954,5.37124 0,0.98113 1.39634,1.20062 4,0.62876 4.08252,-0.89667 5.8401,1.37758 2.1569,2.79096 -1.0137,0.38899 -3.76502,3.09883 -6.11402,6.02186 l -4.27093,5.31459 5.09428,-2.73037 c 6.80865,-3.64922 10.83323,-3.51546 12.62619,0.41963 l 1.43522,3.15 6.53619,-3.15315 c 4.77079,-2.30151 6.53617,-3.91456 6.53617,-5.97218 0,-2.28766 0.56548,-2.658 3,-1.96475 9.78872,2.78741 10.20522,2.70589 15.50487,-3.03465 2.79703,-3.02973 6.07767,-5.5086 7.29032,-5.5086 3.13963,0 2.80175,0.85086 -2.50955,6.31972 -5.86653,6.04059 -4.89661,6.78244 10.33022,7.90112 6.07794,0.44653 11.96362,1.2772 13.07929,1.84594 1.11567,0.56874 5.01567,0.26903 8.66667,-0.66603 3.651,-0.93506 10.38818,-1.48275 14.97152,-1.2171 18.00978,1.04387 23.88396,1.68686 29.29346,3.20648 5.2704,1.48054 5.88919,1.3599 9.76898,-1.90473 4.57462,-3.8493 5.07448,-3.99061 7.86676,-2.22404 1.37596,0.87051 3.23926,0.0703 6.49745,-2.79045 5.37421,-4.71862 10.52689,-7.29514 11.88108,-5.94096 0.52972,0.52972 -1.42281,3.09631 -4.33897,5.70353 -2.91615,2.60722 -4.25974,4.00415 -2.98574,3.10429 2.789,-1.96996 6.35031,-0.8743 6.35031,1.95371 0,2.55241 1.75475,2.5819 6.53521,0.10983 2.05487,-1.06261 4.87508,-1.88251 6.26712,-1.82198 1.39206,0.0605 3.581,-0.33426 4.86434,-0.87729 3.19977,-1.35398 3.0162,1.604 -0.41155,6.63129 -1.50003,2.2 -4.50471,7.45 -6.67708,11.66667 -3.83635,7.44653 -6.57804,9.78989 -6.57804,5.62233 0,-1.12437 1.48123,-4.96738 3.29161,-8.54001 2.91391,-5.75032 3.04356,-6.59089 1.12984,-7.32525 -1.18897,-0.45626 -4.15848,-0.17059 -6.59888,0.63482 -4.81641,1.58956 -7.1559,0.88536 -7.1559,-2.15397 0,-1.45865 -1.3127,-1.10937 -5.30684,1.41202 -3.26223,2.05936 -7.25924,3.35006 -10.37435,3.35006 -4.43945,0 -5.26033,0.51086 -6.62333,4.12185 -1.91207,5.06564 -4.87783,3.92797 -3.7031,-1.42051 0.7442,-3.38831 0.42119,-3.78538 -3.70977,-4.56035 -2.83556,-0.53196 -6.33045,-0.0945 -9.36095,1.17173 -2.65981,1.11134 -6.72524,2.02061 -9.03428,2.02061 -3.75917,0 -4.13161,-0.34862 -3.56105,-3.33333 0.41116,-2.15082 0.032,-3.33333 -1.06884,-3.33333 -0.93833,0 -2.54252,-0.32098 -3.56485,-0.71329 -1.09751,-0.42115 -2.60308,0.67742 -3.67608,2.68235 -1.15776,2.16328 -2.59619,3.14841 -3.96347,2.71445 -1.37116,-0.43519 -2.93008,0.64251 -4.31692,2.98433 -3.94864,6.66769 -8.11827,9.47932 -15.85757,10.69297 -4.08611,0.64076 -8.54055,0.77521 -9.89878,0.29877 z m -93.17164,-19.62917 c -0.4036,-0.40361 0.74944,-2.4966 2.56232,-4.65109 1.8129,-2.15449 3.29616,-4.47122 3.29616,-5.14829 0,-0.67707 0.66504,-1.23103 1.47788,-1.23103 0.89598,0 1.16026,1.26548 0.6712,3.21402 l -0.80666,3.21402 8.3288,-1.93791 c 4.58082,-1.06585 9.1827,-2.7875 10.22637,-3.8259 4.86425,-4.83964 -15.8216,-6.06307 -22.99903,-1.36023 -4.2177,2.76355 -7.88052,11.64218 -6.71638,16.28046 l 0.87173,3.47328 1.91072,-3.64675 c 1.05091,-2.00571 1.58051,-3.97697 1.17689,-4.38058 z m 61.46467,3.7705 c 1.06384,-0.55585 1.18771,-1.50809 0.36681,-2.82007 -1.09553,-1.75092 -1.65648,-1.7487 -4.83262,0.0192 -5.19082,2.88921 -5.76987,5.69629 -0.93754,4.54489 2.08844,-0.49761 4.51995,-1.2824 5.40335,-1.74398 z m 35.25197,-0.75049 4.47518,-2.07297 -6.63487,0.69376 c -3.64919,0.38157 -7.54919,1.66306 -8.66667,2.84774 -1.85164,1.96299 -1.66014,2.08528 2.1597,1.37921 2.30532,-0.42612 6.20532,-1.7076 8.66666,-2.84774 z m 76.41823,-1.95829 c 1.33592,-2.16157 -1.56704,-2.81843 -3.28857,-0.74412 -1.33968,1.61423 -1.25802,1.98532 0.4369,1.98532 1.14651,0 2.42976,-0.55854 2.85167,-1.2412 z"
     id="path4749"
     inkscape:connector-curvature="0"
     inkscape:export-filename="C:\Users\Joanna\Desktop\gm\logo grube.png"
     inkscape:export-xdpi="96"
     inkscape:export-ydpi="96" />
</svg>
